<svg width="321" height="47" viewBox="0 0 321 47" fill="none" xmlns="http://www.w3.org/2000/svg">
<path d="M20.1875 0.65625V46.1562H11.0938V0.65625H20.1875ZM31.5 0.65625V8.25H0V0.65625H31.5ZM46.3125 0.65625V46.1562H37.2188V0.65625H46.3125ZM75.8125 31H84.9062C84.7812 34.4167 84.0938 37.3021 82.8438 39.6562C81.5938 41.9896 79.8125 43.7604 77.5 44.9688C75.2083 46.1771 72.4375 46.7812 69.1875 46.7812C66.6667 46.7812 64.4271 46.3646 62.4688 45.5312C60.5104 44.6771 58.8438 43.4271 57.4688 41.7812C56.0938 40.1354 55.0521 38.1042 54.3438 35.6875C53.6562 33.25 53.3125 30.4479 53.3125 27.2812V19.5625C53.3125 16.3958 53.6771 13.5938 54.4062 11.1562C55.1562 8.71875 56.2188 6.67708 57.5938 5.03125C58.9896 3.36458 60.6667 2.11458 62.625 1.28125C64.6042 0.427083 66.8333 0 69.3125 0C72.625 0 75.3958 0.625 77.625 1.875C79.8542 3.125 81.5729 4.94792 82.7812 7.34375C84.0104 9.71875 84.75 12.625 85 16.0625H75.8438C75.8021 13.8958 75.5625 12.1979 75.125 10.9688C74.7083 9.71875 74.0417 8.84375 73.125 8.34375C72.2083 7.82292 70.9375 7.5625 69.3125 7.5625C68.1042 7.5625 67.0625 7.78125 66.1875 8.21875C65.3125 8.63542 64.5938 9.3125 64.0312 10.25C63.4688 11.1875 63.0521 12.4167 62.7812 13.9375C62.5312 15.4583 62.4062 17.3125 62.4062 19.5V27.2812C62.4062 29.4271 62.5208 31.2604 62.75 32.7812C62.9792 34.2812 63.3438 35.5104 63.8438 36.4688C64.3438 37.4271 65.0208 38.125 65.875 38.5625C66.75 39 67.8542 39.2188 69.1875 39.2188C70.7292 39.2188 71.9688 38.9896 72.9062 38.5312C73.8646 38.0729 74.5729 37.25 75.0312 36.0625C75.4896 34.875 75.75 33.1875 75.8125 31ZM121.625 0.65625V46.1562H112.531V0.65625H121.625ZM132.938 0.65625V8.25H101.438V0.65625H132.938ZM150.969 8.78125L141.188 46.1562H131.531L145.75 0.65625H151.781L150.969 8.78125ZM158.688 46.1562L148.844 8.78125L147.938 0.65625H154.062L168.406 46.1562H158.688ZM159.031 29.1875V36.7812H138.5V29.1875H159.031ZM193.75 31H202.844C202.719 34.4167 202.031 37.3021 200.781 39.6562C199.531 41.9896 197.75 43.7604 195.438 44.9688C193.146 46.1771 190.375 46.7812 187.125 46.7812C184.604 46.7812 182.365 46.3646 180.406 45.5312C178.448 44.6771 176.781 43.4271 175.406 41.7812C174.031 40.1354 172.99 38.1042 172.281 35.6875C171.594 33.25 171.25 30.4479 171.25 27.2812V19.5625C171.25 16.3958 171.615 13.5938 172.344 11.1562C173.094 8.71875 174.156 6.67708 175.531 5.03125C176.927 3.36458 178.604 2.11458 180.562 1.28125C182.542 0.427083 184.771 0 187.25 0C190.562 0 193.333 0.625 195.562 1.875C197.792 3.125 199.51 4.94792 200.719 7.34375C201.948 9.71875 202.688 12.625 202.938 16.0625H193.781C193.74 13.8958 193.5 12.1979 193.062 10.9688C192.646 9.71875 191.979 8.84375 191.062 8.34375C190.146 7.82292 188.875 7.5625 187.25 7.5625C186.042 7.5625 185 7.78125 184.125 8.21875C183.25 8.63542 182.531 9.3125 181.969 10.25C181.406 11.1875 180.99 12.4167 180.719 13.9375C180.469 15.4583 180.344 17.3125 180.344 19.5V27.2812C180.344 29.4271 180.458 31.2604 180.688 32.7812C180.917 34.2812 181.281 35.5104 181.781 36.4688C182.281 37.4271 182.958 38.125 183.812 38.5625C184.688 39 185.792 39.2188 187.125 39.2188C188.667 39.2188 189.906 38.9896 190.844 38.5312C191.802 38.0729 192.51 37.25 192.969 36.0625C193.427 34.875 193.688 33.1875 193.75 31ZM239.562 0.65625V46.1562H230.469V0.65625H239.562ZM250.875 0.65625V8.25H219.375V0.65625H250.875ZM287.281 19.875V27.4688C287.281 30.6771 286.885 33.4896 286.094 35.9062C285.323 38.3021 284.219 40.3125 282.781 41.9375C281.365 43.5417 279.646 44.75 277.625 45.5625C275.625 46.375 273.406 46.7812 270.969 46.7812C268.531 46.7812 266.302 46.375 264.281 45.5625C262.281 44.75 260.552 43.5417 259.094 41.9375C257.656 40.3125 256.542 38.3021 255.75 35.9062C254.958 33.4896 254.562 30.6771 254.562 27.4688V19.875C254.562 16.5833 254.948 13.7083 255.719 11.25C256.49 8.77083 257.604 6.70833 259.062 5.0625C260.521 3.39583 262.25 2.14583 264.25 1.3125C266.25 0.458333 268.469 0.03125 270.906 0.03125C273.344 0.03125 275.562 0.458333 277.562 1.3125C279.562 2.14583 281.292 3.39583 282.75 5.0625C284.208 6.70833 285.323 8.77083 286.094 11.25C286.885 13.7083 287.281 16.5833 287.281 19.875ZM278.188 27.4688V19.8125C278.188 17.6458 278.031 15.8021 277.719 14.2812C277.406 12.7396 276.938 11.4792 276.312 10.5C275.688 9.52083 274.927 8.80208 274.031 8.34375C273.135 7.88542 272.094 7.65625 270.906 7.65625C269.719 7.65625 268.667 7.88542 267.75 8.34375C266.854 8.80208 266.094 9.52083 265.469 10.5C264.865 11.4792 264.406 12.7396 264.094 14.2812C263.802 15.8021 263.656 17.6458 263.656 19.8125V27.4688C263.656 29.5521 263.812 31.3333 264.125 32.8125C264.438 34.2917 264.906 35.5 265.531 36.4375C266.156 37.375 266.917 38.0729 267.812 38.5312C268.729 38.9688 269.781 39.1875 270.969 39.1875C272.135 39.1875 273.167 38.9688 274.062 38.5312C274.979 38.0729 275.74 37.375 276.344 36.4375C276.948 35.5 277.406 34.2917 277.719 32.8125C278.031 31.3333 278.188 29.5521 278.188 27.4688ZM320.031 38.5938V46.1562H300.25V38.5938H320.031ZM303.094 0.65625V46.1562H293.938V0.65625H303.094ZM317.375 19.0938V26.4375H300.25V19.0938H317.375ZM319.969 0.65625V8.25H300.25V0.65625H319.969Z" fill="#F1B869"/>
</svg>
