<svg width="98" height="15" viewBox="0 0 98 15" fill="none" xmlns="http://www.w3.org/2000/svg">
<path d="M0 0.195312H4.56055C5.51107 0.195312 6.32161 0.358073 6.99219 0.683594C7.66276 1.00911 8.17708 1.49089 8.53516 2.12891C8.89323 2.76693 9.07227 3.55469 9.07227 4.49219C9.07227 5.26042 8.9681 5.91797 8.75977 6.46484C8.55143 7.00521 8.25521 7.45768 7.87109 7.82227C7.48698 8.18034 7.02799 8.4668 6.49414 8.68164L5.625 9.19922H1.92383L1.91406 6.82617H4.48242C4.87305 6.82617 5.19531 6.74154 5.44922 6.57227C5.70964 6.39648 5.90169 6.15234 6.02539 5.83984C6.1556 5.52083 6.2207 5.14974 6.2207 4.72656C6.2207 4.27734 6.16211 3.89323 6.04492 3.57422C5.93424 3.2487 5.75521 3.0013 5.50781 2.83203C5.26693 2.65625 4.95117 2.56836 4.56055 2.56836H2.86133V14.4141H0V0.195312ZM6.45508 14.4141L3.84766 8.07617L6.8457 8.06641L9.51172 14.2773V14.4141H6.45508ZM24.2188 12.0508V14.4141H18.0371V12.0508H24.2188ZM18.9258 0.195312V14.4141H16.0645V0.195312H18.9258ZM23.3887 5.95703V8.25195H18.0371V5.95703H23.3887ZM24.1992 0.195312V2.56836H18.0371V0.195312H24.1992ZM36.9043 10.6738C36.9043 10.4199 36.8815 10.1888 36.8359 9.98047C36.7904 9.77214 36.6927 9.58008 36.543 9.4043C36.3997 9.22852 36.1882 9.05273 35.9082 8.87695C35.6348 8.70117 35.2767 8.51888 34.834 8.33008C34.3066 8.10872 33.7956 7.87435 33.3008 7.62695C32.806 7.37305 32.36 7.08008 31.9629 6.74805C31.5658 6.41602 31.25 6.02539 31.0156 5.57617C30.7878 5.12044 30.6738 4.58659 30.6738 3.97461C30.6738 3.37565 30.7812 2.83203 30.9961 2.34375C31.2174 1.85547 31.5299 1.4388 31.9336 1.09375C32.3372 0.742188 32.8092 0.472005 33.3496 0.283203C33.8965 0.094401 34.5052 0 35.1758 0C36.0872 0 36.875 0.188802 37.5391 0.566406C38.2096 0.94401 38.7272 1.46159 39.0918 2.11914C39.4629 2.77669 39.6484 3.5319 39.6484 4.38477H36.7969C36.7969 3.98112 36.7383 3.6263 36.6211 3.32031C36.5104 3.00781 36.3314 2.76367 36.084 2.58789C35.8366 2.41211 35.5176 2.32422 35.127 2.32422C34.7624 2.32422 34.4596 2.39909 34.2188 2.54883C33.9844 2.69206 33.8086 2.89062 33.6914 3.14453C33.5807 3.39193 33.5254 3.67188 33.5254 3.98438C33.5254 4.21875 33.5807 4.43034 33.6914 4.61914C33.8086 4.80143 33.9681 4.96745 34.1699 5.11719C34.3717 5.26042 34.6094 5.40039 34.8828 5.53711C35.1628 5.67383 35.4688 5.80729 35.8008 5.9375C36.4453 6.19141 37.015 6.47135 37.5098 6.77734C38.0046 7.07682 38.418 7.41536 38.75 7.79297C39.082 8.16406 39.3327 8.58398 39.502 9.05273C39.6712 9.52148 39.7559 10.0553 39.7559 10.6543C39.7559 11.2467 39.6517 11.7871 39.4434 12.2754C39.2415 12.7572 38.9453 13.1738 38.5547 13.5254C38.1641 13.8704 37.6921 14.1374 37.1387 14.3262C36.5918 14.515 35.9798 14.6094 35.3027 14.6094C34.6452 14.6094 34.0234 14.5182 33.4375 14.3359C32.8516 14.1471 32.334 13.8639 31.8848 13.4863C31.4421 13.1022 31.0938 12.6172 30.8398 12.0312C30.5859 11.4388 30.459 10.7389 30.459 9.93164H33.3203C33.3203 10.3613 33.3626 10.7292 33.4473 11.0352C33.5319 11.3346 33.6621 11.5755 33.8379 11.7578C34.0137 11.9336 34.2285 12.0671 34.4824 12.1582C34.7428 12.2428 35.0391 12.2852 35.3711 12.2852C35.7487 12.2852 36.0482 12.2135 36.2695 12.0703C36.4974 11.9271 36.6602 11.735 36.7578 11.4941C36.8555 11.2533 36.9043 10.9798 36.9043 10.6738ZM52.3535 0.195312V14.4141H49.5117V0.195312H52.3535ZM55.8887 0.195312V2.56836H46.0449V0.195312H55.8887ZM65.5176 0.195312V14.4141H62.6758V0.195312H65.5176ZM75.8203 0.195312V14.4141H72.959V0.195312H75.8203ZM80.2734 6.24023V8.60352H75.0977V6.24023H80.2734ZM80.8203 0.195312V2.56836H75.0977V0.195312H80.8203ZM89.5996 0.195312L91.7676 6.60156L93.916 0.195312H97.0312L93.2031 9.24805V14.4141H90.3223V9.24805L86.4941 0.195312H89.5996Z" fill="#3F414E"/>
</svg>
