<svg width="40" height="40" viewBox="0 0 40 40" fill="none" xmlns="http://www.w3.org/2000/svg">
<path d="M16.0688 6C14.9 6 13.8062 6.5875 13.1562 7.55625L11.5312 10H8C5.79375 10 4 11.7937 4 14V30C4 32.2062 5.79375 34 8 34H32C34.2062 34 36 32.2062 36 30V14C36 11.7937 34.2062 10 32 10H28.4688L26.8438 7.55625C26.1938 6.5875 25.1 6 23.9312 6H16.0688ZM15.65 9.225C15.7437 9.0875 15.9 9 16.0688 9H23.925C24.0938 9 24.25 9.08125 24.3438 9.225L26.4188 12.3375C26.7 12.7562 27.1625 13.0063 27.6688 13.0063H32C32.55 13.0063 33 13.4563 33 14.0063V30.0063C33 30.5562 32.55 31.0063 32 31.0063L8 31C7.45 31 7 30.55 7 30V14C7 13.45 7.45 13 8 13H12.3313C12.8313 13 13.3 12.75 13.5813 12.3313L15.6562 9.21875L15.65 9.225ZM20 28C23.8687 28 27 24.8687 27 21C27 17.1313 23.8687 14 20 14C16.1313 14 13 17.1313 13 21C13 24.8687 16.1313 28 20 28ZM16 21C16 18.7937 17.7937 17 20 17C22.2062 17 24 18.7937 24 21C24 23.2062 22.2062 25 20 25C17.7937 25 16 23.2062 16 21Z" fill="#A1A4B2"/>
</svg>
