<svg width="30" height="30" viewBox="0 0 30 30" fill="none" xmlns="http://www.w3.org/2000/svg">
<circle cx="15" cy="15" r="14" stroke="#A0A3B1" stroke-width="2"/>
<path d="M12.625 20.4213H13.25V15.7659H12.625C12.2798 15.7659 12 15.4774 12 15.1214V13.5819C12 13.2259 12.2798 12.9374 12.625 12.9374H16.125C16.4702 12.9374 16.75 13.2259 16.75 13.5819V20.4213H17.375C17.7202 20.4213 18 20.7099 18 21.0659V22.6053C18 22.9613 17.7202 23.2499 17.375 23.2499H12.625C12.2798 23.2499 12 22.9613 12 22.6053V21.0659C12 20.7099 12.2798 20.4213 12.625 20.4213ZM15 6.74988C13.7573 6.74988 12.75 7.7887 12.75 9.07019C12.75 10.3517 13.7573 11.3905 15 11.3905C16.2426 11.3905 17.25 10.3517 17.25 9.07019C17.25 7.7887 16.2426 6.74988 15 6.74988Z" fill="#A1A4B2"/>
</svg>
