<svg width="24" height="24" viewBox="0 0 24 24" fill="none" xmlns="http://www.w3.org/2000/svg">
<g clip-path="url(#clip0_252_104)">
<path d="M17 3.34001C18.5083 4.21087 19.7629 5.46054 20.6398 6.96531C21.5167 8.47009 21.9854 10.1778 21.9994 11.9194C22.0135 13.6609 21.5725 15.376 20.72 16.8947C19.8676 18.4135 18.6332 19.6832 17.1392 20.5783C15.6452 21.4734 13.9434 21.9628 12.2021 21.9981C10.4608 22.0333 8.74055 21.6132 7.21155 20.7793C5.68256 19.9453 4.39787 18.7265 3.48467 17.2435C2.57146 15.7605 2.06141 14.0647 2.005 12.324L2 12L2.005 11.676C2.061 9.94901 2.56355 8.26598 3.46364 6.79101C4.36373 5.31604 5.63065 4.09947 7.14089 3.2599C8.65113 2.42033 10.3531 1.98641 12.081 2.00045C13.8089 2.01449 15.5036 2.47601 17 3.34001ZM8 5.07201C6.47497 5.9526 5.2831 7.31177 4.60923 8.93875C3.93537 10.5657 3.81716 12.3696 4.27295 14.0706C4.72874 15.7716 5.73305 17.2747 7.13013 18.3467C8.52721 19.4188 10.239 19.9999 12 20L12.2 19.995C13.225 19.9437 14.191 19.5004 14.8983 18.7568C15.6056 18.0133 16.0001 17.0263 16.0001 16C16.0001 14.9738 15.6056 13.9868 14.8983 13.2432C14.191 12.4996 13.225 12.0563 12.2 12.005L12 12C10.9564 12 9.9542 11.5922 9.20712 10.8636C8.46004 10.135 8.02729 9.14327 8.00119 8.10005C7.97509 7.05682 8.35772 6.0447 9.06744 5.27964C9.77715 4.51458 10.7578 4.05718 11.8 4.00501L12 4.00001C10.5957 3.99984 9.21604 4.36958 8 5.07201ZM12 6.50001C11.6022 6.50001 11.2206 6.65805 10.9393 6.93935C10.658 7.22066 10.5 7.60219 10.5 8.00001C10.5 8.39784 10.658 8.77937 10.9393 9.06068C11.2206 9.34198 11.6022 9.50001 12 9.50001C12.3978 9.50001 12.7794 9.34198 13.0607 9.06068C13.342 8.77937 13.5 8.39784 13.5 8.00001C13.5 7.60219 13.342 7.22066 13.0607 6.93935C12.7794 6.65805 12.3978 6.50001 12 6.50001Z" fill="#3F414E"/>
<path d="M12 14.5C12.3978 14.5 12.7794 14.658 13.0607 14.9393C13.342 15.2206 13.5 15.6022 13.5 16C13.5 16.3978 13.342 16.7794 13.0607 17.0607C12.7794 17.342 12.3978 17.5 12 17.5C11.6022 17.5 11.2206 17.342 10.9393 17.0607C10.658 16.7794 10.5 16.3978 10.5 16C10.5 15.6022 10.658 15.2206 10.9393 14.9393C11.2206 14.658 11.6022 14.5 12 14.5Z" fill="#3F414E"/>
</g>
<defs>
<clipPath id="clip0_252_104">
<rect width="24" height="24" fill="white"/>
</clipPath>
</defs>
</svg>
