<svg width="30" height="25" viewBox="0 0 30 25" fill="none" xmlns="http://www.w3.org/2000/svg">
<path d="M2.8125 0C2.25624 0 1.71247 0.16495 1.24996 0.473992C0.787447 0.783033 0.426962 1.22229 0.21409 1.7362C0.00121862 2.25012 -0.0544783 2.81562 0.0540427 3.36119C0.162564 3.90676 0.430428 4.4079 0.823763 4.80124C1.2171 5.19457 1.71824 5.46244 2.26381 5.57096C2.80938 5.67948 3.37488 5.62378 3.8888 5.41091C4.40272 5.19804 4.84197 4.83755 5.15101 4.37504C5.46005 3.91253 5.625 3.36876 5.625 2.8125C5.625 2.06658 5.32869 1.35121 4.80124 0.823762C4.27379 0.296316 3.55842 0 2.8125 0ZM2.8125 9.375C2.25624 9.375 1.71247 9.53995 1.24996 9.84899C0.787447 10.158 0.426962 10.5973 0.21409 11.1112C0.00121862 11.6251 -0.0544783 12.1906 0.0540427 12.7362C0.162564 13.2818 0.430428 13.7829 0.823763 14.1762C1.2171 14.5696 1.71824 14.8374 2.26381 14.946C2.80938 15.0545 3.37488 14.9988 3.8888 14.7859C4.40272 14.573 4.84197 14.2126 5.15101 13.75C5.46005 13.2875 5.625 12.7438 5.625 12.1875C5.625 11.4416 5.32869 10.7262 4.80124 10.1988C4.27379 9.67132 3.55842 9.375 2.8125 9.375ZM2.8125 18.75C2.25624 18.75 1.71247 18.915 1.24996 19.224C0.787447 19.533 0.426962 19.9723 0.21409 20.4862C0.00121862 21.0001 -0.0544783 21.5656 0.0540427 22.1112C0.162564 22.6568 0.430428 23.1579 0.823763 23.5512C1.2171 23.9446 1.71824 24.2124 2.26381 24.321C2.80938 24.4295 3.37488 24.3738 3.8888 24.1609C4.40272 23.948 4.84197 23.5876 5.15101 23.125C5.46005 22.6625 5.625 22.1188 5.625 21.5625C5.625 20.8166 5.32869 20.1012 4.80124 19.5738C4.27379 19.0463 3.55842 18.75 2.8125 18.75ZM29.0625 19.6875H10.3125C10.0639 19.6875 9.8254 19.7863 9.64959 19.9621C9.47377 20.1379 9.375 20.3764 9.375 20.625V22.5C9.375 22.7486 9.47377 22.9871 9.64959 23.1629C9.8254 23.3387 10.0639 23.4375 10.3125 23.4375H29.0625C29.3111 23.4375 29.5496 23.3387 29.7254 23.1629C29.9012 22.9871 30 22.7486 30 22.5V20.625C30 20.3764 29.9012 20.1379 29.7254 19.9621C29.5496 19.7863 29.3111 19.6875 29.0625 19.6875ZM29.0625 0.9375H10.3125C10.0639 0.9375 9.8254 1.03627 9.64959 1.21209C9.47377 1.3879 9.375 1.62636 9.375 1.875V3.75C9.375 3.99864 9.47377 4.2371 9.64959 4.41291C9.8254 4.58873 10.0639 4.6875 10.3125 4.6875H29.0625C29.3111 4.6875 29.5496 4.58873 29.7254 4.41291C29.9012 4.2371 30 3.99864 30 3.75V1.875C30 1.62636 29.9012 1.3879 29.7254 1.21209C29.5496 1.03627 29.3111 0.9375 29.0625 0.9375ZM29.0625 10.3125H10.3125C10.0639 10.3125 9.8254 10.4113 9.64959 10.5871C9.47377 10.7629 9.375 11.0014 9.375 11.25V13.125C9.375 13.3736 9.47377 13.6121 9.64959 13.7879C9.8254 13.9637 10.0639 14.0625 10.3125 14.0625H29.0625C29.3111 14.0625 29.5496 13.9637 29.7254 13.7879C29.9012 13.6121 30 13.3736 30 13.125V11.25C30 11.0014 29.9012 10.7629 29.7254 10.5871C29.5496 10.4113 29.3111 10.3125 29.0625 10.3125Z" fill="#A1A4B2"/>
</svg>
