<svg width="24" height="25" viewBox="0 0 24 25" fill="none" xmlns="http://www.w3.org/2000/svg">
<path d="M14.1708 0.54893C14.5536 0.760643 14.9364 0.972357 15.3309 1.19049C15.5377 1.30299 15.7446 1.4155 15.9577 1.53142C16.6102 1.88803 17.258 2.25237 17.9061 2.61701C18.3496 2.8606 18.7934 3.10367 19.2375 3.34623C22.4307 5.09957 22.4307 5.09957 22.8623 5.53123C22.9618 7.35563 22.9692 9.18091 22.9815 11.0078C22.9871 11.6235 22.9964 12.2391 23.0094 12.8547C23.0281 13.7414 23.0355 14.6275 23.0405 15.5143C23.0482 15.7891 23.0559 16.0639 23.0639 16.347C23.059 17.6473 23.0178 18.3 22.1079 19.2621C21.7953 19.4481 21.4827 19.6341 21.1606 19.8258C20.8825 20.0072 20.6044 20.1887 20.3179 20.3757C19.3667 20.9468 18.4142 21.5155 17.4593 22.0806C16.9651 22.3793 16.9651 22.3793 16.4609 22.6841C13.0767 24.6916 13.0767 24.6916 11.2906 24.931C10.2071 24.5959 10.2071 24.5959 9.0996 23.995C8.90009 23.8883 8.70057 23.7816 8.49502 23.6717C2.1398 20.2047 2.1398 20.2047 0.399501 18.4644C0.307579 17.5791 0.255947 16.7275 0.234645 15.84C0.222337 15.4497 0.222337 15.4497 0.20978 15.0515C0.193332 14.5005 0.178566 13.9495 0.165346 13.3984C0.144379 12.5564 0.116094 11.7148 0.0870735 10.8731C0.0720058 10.3377 0.0573675 9.80241 0.0432007 9.26706C0.0343782 9.01566 0.0255557 8.76426 0.0164658 8.50524C-0.0298839 6.16022 -0.0298839 6.16022 0.739847 5.19088C2.0035 4.32442 3.36059 3.6244 4.71315 2.90701C5.37143 2.5562 6.02361 2.19562 6.67596 1.83395C7.09796 1.60688 7.52028 1.38041 7.94295 1.15459C8.3236 0.949375 8.70425 0.74416 9.09644 0.532727C10.9625 -0.178376 12.3109 -0.182149 14.1708 0.54893ZM9.32827 3.28707C9.02555 3.45598 8.72282 3.62489 8.41093 3.79892C8.09768 3.97748 7.78443 4.15604 7.46168 4.34002C6.98391 4.60786 6.98391 4.60786 6.49648 4.88111C5.71061 5.32217 4.92633 5.76583 4.14331 6.21192C4.7058 7.89939 6.3001 8.38369 7.80203 9.21122C8.26532 9.48071 8.26532 9.48071 8.73798 9.75564C9.03807 9.92214 9.33816 10.0886 9.64734 10.2602C9.92144 10.4141 10.1955 10.568 10.4779 10.7266C11.5652 11.0613 11.9968 10.8112 12.9923 10.2961C13.3663 10.1032 13.3663 10.1032 13.7479 9.90637C13.9956 9.76735 14.2434 9.62833 14.4986 9.48509C14.7695 9.33373 15.0404 9.18237 15.3196 9.02642C15.5975 8.8698 15.8754 8.71317 16.1618 8.5518C16.4463 8.39254 16.7308 8.23328 17.0239 8.0692C17.7227 7.67792 18.4208 7.2857 19.1185 6.89261C19.1185 6.66798 19.1185 6.44336 19.1185 6.21192C18.015 5.58325 16.908 4.96107 15.8002 4.34002C15.4869 4.16145 15.1737 3.98289 14.8509 3.79892C14.5482 3.63001 14.2455 3.4611 13.9336 3.28707C13.6555 3.13023 13.3775 2.97338 13.091 2.81178C11.594 2.15168 10.6617 2.53487 9.32827 3.28707ZM2.44158 8.93469C1.94747 11.6164 1.50081 14.4856 2.44158 17.103C4.47559 19.3816 7.47545 20.7322 10.2695 21.8678C10.3819 21.8678 10.4942 21.8678 10.6099 21.8678C10.6099 18.9477 10.6099 16.0275 10.6099 13.0188C9.38847 12.345 8.16705 11.6711 6.90862 10.9768C6.52391 10.7635 6.1392 10.5503 5.74283 10.3306C5.4405 10.1648 5.13816 9.99896 4.82666 9.8281C4.51653 9.65699 4.20641 9.48589 3.88688 9.3096C3.16234 8.88474 3.16234 8.88474 2.44158 8.93469ZM18.4352 9.8281C17.9817 10.0769 17.9817 10.0769 17.519 10.3306C17.1343 10.5439 16.7496 10.7571 16.3532 10.9768C15.1318 11.6507 13.9104 12.3245 12.652 13.0188C12.652 15.939 12.652 18.8592 12.652 21.8678C13.726 21.2571 13.726 21.2571 14.8217 20.6341C15.0394 20.5105 15.2572 20.387 15.4816 20.2597C15.8871 20.0285 16.2896 19.792 16.6901 19.5524C17.4168 19.1451 17.4168 19.1451 18.331 18.7444C19.3076 18.2749 20.0442 17.8621 20.8203 17.103C21.2355 15.6789 21.1454 14.3591 21.033 12.8912C21.0176 12.5108 21.0023 12.1305 20.9865 11.7386C20.9464 10.8021 20.8906 9.86932 20.8203 8.93469C19.8514 8.93469 19.2819 9.36094 18.4352 9.8281Z" fill="#A1A4B2"/>
</svg>
