<svg width="25" height="21" viewBox="0 0 25 21" fill="none" xmlns="http://www.w3.org/2000/svg">
<path d="M2.67857 0C1.20982 0 0 1.18562 0 2.625V17.2083C0 19.292 1.74289 21 3.86905 21H21.131C23.2571 21 25 19.292 25 17.2083V8.45833C25 7.01896 23.7902 5.83333 22.3214 5.83333H21.4286V2.625C21.4286 1.18562 20.2188 0 18.75 0H2.67857ZM2.67857 1.75H18.75C19.2539 1.75 19.6429 2.13121 19.6429 2.625V6.56478C19.6271 6.65871 19.6271 6.75454 19.6429 6.84847V16.625C19.6412 16.7409 19.663 16.8561 19.7072 16.9637C19.7513 17.0713 19.8168 17.1692 19.8999 17.2518C19.9829 17.3343 20.0819 17.3999 20.1911 17.4447C20.3002 17.4894 20.4174 17.5125 20.5357 17.5125C20.654 17.5125 20.7712 17.4894 20.8803 17.4447C20.9895 17.3999 21.0885 17.3343 21.1716 17.2518C21.2546 17.1692 21.3201 17.0713 21.3643 16.9637C21.4084 16.8561 21.4302 16.7409 21.4286 16.625V7.58333H22.3214C22.8253 7.58333 23.2143 7.96454 23.2143 8.45833V17.2083C23.2143 18.3459 22.2917 19.25 21.131 19.25H3.86905C2.7083 19.25 1.78571 18.3459 1.78571 17.2083V2.625C1.78571 2.13121 2.1747 1.75 2.67857 1.75ZM4.46429 5.25C4.34597 5.24836 4.2285 5.26978 4.11871 5.31302C4.00892 5.35626 3.90899 5.42045 3.82473 5.50186C3.74047 5.58327 3.67356 5.68029 3.6279 5.78726C3.58223 5.89424 3.55871 6.00904 3.55871 6.125C3.55871 6.24096 3.58223 6.35576 3.6279 6.46274C3.67356 6.56971 3.74047 6.66673 3.82473 6.74814C3.90899 6.82955 4.00892 6.89374 4.11871 6.93698C4.2285 6.98022 4.34597 7.00164 4.46429 7H16.9643C17.0826 7.00164 17.2001 6.98022 17.3099 6.93698C17.4197 6.89374 17.5196 6.82955 17.6038 6.74814C17.6881 6.66673 17.755 6.56971 17.8007 6.46274C17.8463 6.35576 17.8699 6.24096 17.8699 6.125C17.8699 6.00904 17.8463 5.89424 17.8007 5.78726C17.755 5.68029 17.6881 5.58327 17.6038 5.50186C17.5196 5.42045 17.4197 5.35626 17.3099 5.31302C17.2001 5.26978 17.0826 5.24836 16.9643 5.25H4.46429ZM4.46429 9.91667C4.22749 9.91669 4.0004 10.0089 3.83297 10.173C3.66553 10.3371 3.57145 10.5596 3.57143 10.7917V14.875C3.57145 15.1071 3.66553 15.3296 3.83297 15.4937C4.0004 15.6578 4.22749 15.75 4.46429 15.75H8.63095C8.86775 15.75 9.09483 15.6578 9.26227 15.4937C9.42971 15.3296 9.52379 15.1071 9.52381 14.875V10.7917C9.52379 10.5596 9.42971 10.3371 9.26227 10.173C9.09483 10.0089 8.86775 9.91669 8.63095 9.91667H4.46429ZM12.2024 9.91667C12.0841 9.91503 11.9666 9.93645 11.8568 9.97968C11.747 10.0229 11.6471 10.0871 11.5628 10.1685C11.4786 10.2499 11.4117 10.347 11.366 10.4539C11.3203 10.5609 11.2968 10.6757 11.2968 10.7917C11.2968 10.9076 11.3203 11.0224 11.366 11.1294C11.4117 11.2364 11.4786 11.3334 11.5628 11.4148C11.6471 11.4962 11.747 11.5604 11.8568 11.6036C11.9666 11.6469 12.0841 11.6683 12.2024 11.6667H16.9643C17.0826 11.6683 17.2001 11.6469 17.3099 11.6036C17.4197 11.5604 17.5196 11.4962 17.6038 11.4148C17.6881 11.3334 17.755 11.2364 17.8007 11.1294C17.8463 11.0224 17.8699 10.9076 17.8699 10.7917C17.8699 10.6757 17.8463 10.5609 17.8007 10.4539C17.755 10.347 17.6881 10.2499 17.6038 10.1685C17.5196 10.0871 17.4197 10.0229 17.3099 9.97968C17.2001 9.93645 17.0826 9.91503 16.9643 9.91667H12.2024ZM5.35714 11.6667H7.7381V14H5.35714V11.6667ZM12.2024 14C12.0841 13.9984 11.9666 14.0198 11.8568 14.063C11.747 14.1063 11.6471 14.1704 11.5628 14.2519C11.4786 14.3333 11.4117 14.4303 11.366 14.5373C11.3203 14.6442 11.2968 14.759 11.2968 14.875C11.2968 14.991 11.3203 15.1058 11.366 15.2127C11.4117 15.3197 11.4786 15.4167 11.5628 15.4981C11.6471 15.5796 11.747 15.6437 11.8568 15.687C11.9666 15.7302 12.0841 15.7516 12.2024 15.75H16.9643C17.0826 15.7516 17.2001 15.7302 17.3099 15.687C17.4197 15.6437 17.5196 15.5796 17.6038 15.4981C17.6881 15.4167 17.755 15.3197 17.8007 15.2127C17.8463 15.1058 17.8699 14.991 17.8699 14.875C17.8699 14.759 17.8463 14.6442 17.8007 14.5373C17.755 14.4303 17.6881 14.3333 17.6038 14.2519C17.5196 14.1704 17.4197 14.1063 17.3099 14.063C17.2001 14.0198 17.0826 13.9984 16.9643 14H12.2024Z" fill="#A0A3B1"/>
</svg>
