<svg width="25" height="21" viewBox="0 0 25 21" fill="none" xmlns="http://www.w3.org/2000/svg">
<path d="M4.33237 0.0577798C4.52647 0.055899 4.72056 0.0540182 4.92054 0.0520804C5.5609 0.0467698 6.20119 0.0456674 6.84157 0.045065C7.28794 0.0432649 7.7343 0.0413809 8.18067 0.0394168C9.11604 0.0360654 10.0514 0.035026 10.9867 0.0353579C12.1831 0.0354148 13.3793 0.0277711 14.5757 0.0181255C15.4976 0.0118875 16.4195 0.0107635 17.3415 0.0110594C17.7824 0.0104001 18.2234 0.00793167 18.6643 0.00359327C19.2822 -0.00191726 19.8998 -0.000275059 20.5177 0.00309232C20.8687 0.00229431 21.2197 0.0014963 21.5814 0.000674109C22.7342 0.166954 23.3297 0.518905 24.2213 1.25913C24.8358 2.12259 24.8544 2.87468 24.8626 3.91899C24.8662 4.22741 24.8697 4.53583 24.8734 4.85359C24.8741 5.18552 24.8747 5.51745 24.8753 5.85944C24.8781 6.37314 24.8781 6.37314 24.881 6.89721C24.8838 7.62165 24.8851 8.3461 24.885 9.07055C24.8862 10.178 24.8964 11.2851 24.907 12.3924C24.9087 13.0964 24.9098 13.8004 24.9103 14.5044C24.9143 14.8352 24.9184 15.166 24.9225 15.5069C24.9127 17.2661 24.9039 18.4348 23.6613 19.7391C22.6635 20.3996 21.7675 20.3733 20.5901 20.3805C20.299 20.3833 20.299 20.3833 20.002 20.3862C19.3616 20.3915 18.7213 20.3926 18.0809 20.3932C17.6346 20.395 17.1882 20.3969 16.7418 20.3988C15.8065 20.4022 14.8711 20.4032 13.9358 20.4029C12.7394 20.4028 11.5432 20.4105 10.3468 20.4201C9.42488 20.4264 8.50299 20.4275 7.58103 20.4272C7.14008 20.4279 6.69913 20.4303 6.2582 20.4347C5.64028 20.4402 5.02276 20.4385 4.40483 20.4352C3.87828 20.4364 3.87828 20.4364 3.3411 20.4376C2.18835 20.2713 1.59277 19.9193 0.701256 19.1791C0.0866619 18.3157 0.0681343 17.5636 0.0599084 16.5193C0.0563357 16.2108 0.052763 15.9024 0.049082 15.5847C0.0484588 15.2527 0.0478357 14.9208 0.0471936 14.5788C0.0453297 14.2363 0.0434658 13.8939 0.0415454 13.541C0.0387103 12.8166 0.0373966 12.0921 0.0374866 11.3677C0.0362629 10.2603 0.0260946 9.1532 0.0154749 8.04585C0.0138316 7.34184 0.0127203 6.63783 0.0121936 5.93381C0.00816972 5.60302 0.00414583 5.27222 0 4.9314C0.00977177 3.17215 0.0186546 2.00346 1.26126 0.699127C2.25901 0.0386332 3.15504 0.0649482 4.33237 0.0577798ZM2.10126 2.93913C1.9319 3.60208 1.9319 3.60208 1.95633 4.35772C1.9528 4.64645 1.94927 4.93518 1.94564 5.23265C1.9479 5.54416 1.95017 5.85568 1.95251 6.17663C1.95143 6.49662 1.95036 6.81661 1.94926 7.1463C1.9485 7.82322 1.95057 8.50015 1.95524 9.17706C1.96123 10.2151 1.9553 11.2526 1.94813 12.2907C1.94887 12.9477 1.95031 13.6046 1.95251 14.2616C1.95024 14.5731 1.94797 14.8846 1.94564 15.2056C1.94917 15.4943 1.9527 15.7831 1.95633 16.0805C1.95723 16.3348 1.95812 16.589 1.95903 16.851C2.0511 17.5277 2.0511 17.5277 2.55745 18.001C3.422 18.4414 4.05722 18.4458 5.02704 18.4478C5.39332 18.4505 5.7596 18.4531 6.13699 18.4558C6.53591 18.4543 6.93483 18.4526 7.33376 18.4507C7.7438 18.4513 8.15384 18.4521 8.56388 18.4531C9.42253 18.4544 10.2811 18.4526 11.1397 18.4486C12.2395 18.4439 13.3391 18.4466 14.4388 18.4516C15.2853 18.4547 16.1318 18.4537 16.9783 18.4515C17.3837 18.451 17.7892 18.4517 18.1947 18.4536C18.7616 18.4558 19.3285 18.4519 19.8955 18.4478C20.2179 18.4471 20.5403 18.4465 20.8725 18.4458C21.8002 18.3264 22.1931 18.1902 22.8213 17.4991C22.9906 16.8362 22.9906 16.8362 22.9662 16.0805C22.9697 15.7918 22.9732 15.5031 22.9769 15.2056C22.9746 14.8941 22.9723 14.5826 22.97 14.2616C22.9711 13.9416 22.9721 13.6216 22.9733 13.2919C22.974 12.615 22.9719 11.9381 22.9673 11.2612C22.9613 10.2231 22.9672 9.18561 22.9744 8.14756C22.9736 7.49058 22.9722 6.8336 22.97 6.17663C22.9723 5.86512 22.9745 5.5536 22.9769 5.23265C22.9733 4.94392 22.9698 4.6552 22.9662 4.35772C22.9653 4.10346 22.9644 3.8492 22.9635 3.58724C22.8714 2.91055 22.8714 2.91055 22.3651 2.43726C21.5005 1.99687 20.8653 1.99245 19.8955 1.99044C19.5292 1.98779 19.1629 1.98514 18.7855 1.98241C18.3866 1.98392 17.9877 1.98564 17.5888 1.98756C17.1787 1.987 16.7687 1.98618 16.3586 1.98513C15.5 1.98389 14.6414 1.98569 13.7828 1.98962C12.683 1.9944 11.5834 1.99165 10.4837 1.98661C9.63719 1.98358 8.79073 1.98455 7.94423 1.98672C7.53877 1.98728 7.13331 1.9866 6.72786 1.98464C6.16092 1.9825 5.59397 1.98634 5.02704 1.99044C4.70461 1.9911 4.38218 1.99177 4.04998 1.99246C3.12234 2.11186 2.72945 2.24804 2.10126 2.93913Z" fill="#A0A3B1"/>
<path d="M9.94125 6.57935C11.3716 6.64835 12.4487 7.24212 13.6512 7.96185C13.9133 8.11317 13.9133 8.11317 14.1806 8.26755C14.8944 8.68521 15.5142 9.07227 16.1013 9.65935C16.0582 10.5254 15.9631 10.9274 15.3214 11.5242C14.6516 11.9366 13.9828 12.3465 13.3012 12.7393C13.098 12.8599 12.8948 12.9805 12.6855 13.1047C11.7944 13.5969 11.2708 13.8727 10.2387 13.8068C9.66125 13.5793 9.66125 13.5793 9.38125 13.2993C9.31081 12.2804 9.32939 11.2579 9.32875 10.2368C9.32532 9.949 9.32189 9.66115 9.31836 9.36458C9.31782 9.08973 9.31728 8.81487 9.31672 8.53169C9.31557 8.27833 9.31442 8.02498 9.31323 7.76395C9.38125 7.13935 9.38125 7.13935 9.94125 6.57935Z" fill="#A0A3B1"/>
<path d="M21.2812 15.2241C21.9812 15.2591 21.9812 15.2591 22.2612 15.5391C22.2962 16.2391 22.2962 16.2391 22.2612 16.9391C21.9812 17.2191 21.9812 17.2191 21.1237 17.2366C20.7166 17.228 20.7166 17.228 20.3012 17.2191C20.2893 16.6592 20.2898 16.099 20.3012 15.5391C20.5812 15.2591 20.5812 15.2591 21.2812 15.2241Z" fill="#A0A3B1"/>
<path d="M17.6413 15.2241C18.3413 15.2591 18.3413 15.2591 18.6213 15.5391C18.6327 16.099 18.6332 16.6592 18.6213 17.2191C18.0614 17.231 17.5011 17.2305 16.9413 17.2191C16.6613 16.9391 16.6613 16.9391 16.6263 16.2391C16.6734 15.2962 16.6983 15.2713 17.6413 15.2241Z" fill="#A0A3B1"/>
<path d="M14.2812 15.2241C14.9812 15.2591 14.9812 15.2591 15.2612 15.5391C15.2962 16.2391 15.2962 16.2391 15.2612 16.9391C14.9812 17.2191 14.9812 17.2191 14.1237 17.2366C13.7166 17.228 13.7166 17.228 13.3012 17.2191C13.2893 16.6592 13.2898 16.099 13.3012 15.5391C13.5812 15.2591 13.5812 15.2591 14.2812 15.2241Z" fill="#A0A3B1"/>
<path d="M10.6413 15.2241C11.3413 15.2591 11.3413 15.2591 11.6213 15.5391C11.6327 16.099 11.6332 16.6592 11.6213 17.2191C11.0614 17.231 10.5011 17.2305 9.94125 17.2191C9.66125 16.9391 9.66125 16.9391 9.62625 16.2391C9.6734 15.2962 9.69828 15.2713 10.6413 15.2241Z" fill="#A0A3B1"/>
<path d="M7.28123 15.2241C7.98123 15.2591 7.98123 15.2591 8.26123 15.5391C8.29623 16.2391 8.29623 16.2391 8.26123 16.9391C7.98123 17.2191 7.98123 17.2191 7.12373 17.2366C6.7166 17.228 6.7166 17.228 6.30123 17.2191C6.28932 16.6592 6.28981 16.099 6.30123 15.5391C6.58123 15.2591 6.58123 15.2591 7.28123 15.2241Z" fill="#A0A3B1"/>
<path d="M3.64125 15.2241C4.34125 15.2591 4.34125 15.2591 4.62125 15.5391C4.63268 16.099 4.63316 16.6592 4.62125 17.2191C4.06138 17.231 3.50113 17.2305 2.94125 17.2191C2.66125 16.9391 2.66125 16.9391 2.62625 16.2391C2.6734 15.2962 2.69828 15.2713 3.64125 15.2241Z" fill="#A0A3B1"/>
<path d="M20.3013 3.2192C20.8611 3.20729 21.4214 3.20778 21.9813 3.2192C22.2613 3.4992 22.2613 3.4992 22.2963 4.1992C22.2613 4.8992 22.2613 4.8992 21.9813 5.1792C21.2813 5.2142 21.2813 5.2142 20.5813 5.1792C20.3013 4.8992 20.3013 4.8992 20.2838 4.0417C20.2895 3.77028 20.2953 3.49885 20.3013 3.2192Z" fill="#A0A3B1"/>
<path d="M17.7987 3.20166C18.2059 3.21032 18.2059 3.21032 18.6212 3.21916C18.6331 3.77903 18.6327 4.33928 18.6212 4.89916C18.3412 5.17916 18.3412 5.17916 17.6412 5.21416C16.9412 5.17916 16.9412 5.17916 16.6612 4.89916C16.6262 4.19916 16.6262 4.19916 16.6612 3.49916C16.9412 3.21916 16.9412 3.21916 17.7987 3.20166Z" fill="#A0A3B1"/>
<path d="M13.3013 3.2192C13.8611 3.20729 14.4214 3.20778 14.9813 3.2192C15.2613 3.4992 15.2613 3.4992 15.2963 4.1992C15.2613 4.8992 15.2613 4.8992 14.9813 5.1792C14.2813 5.2142 14.2813 5.2142 13.5813 5.1792C13.3013 4.8992 13.3013 4.8992 13.2838 4.0417C13.2895 3.77028 13.2953 3.49885 13.3013 3.2192Z" fill="#A0A3B1"/>
<path d="M10.7987 3.20166C11.2059 3.21032 11.2059 3.21032 11.6212 3.21916C11.6331 3.77903 11.6327 4.33928 11.6212 4.89916C11.3412 5.17916 11.3412 5.17916 10.6412 5.21416C9.94123 5.17916 9.94123 5.17916 9.66123 4.89916C9.62623 4.19916 9.62623 4.19916 9.66123 3.49916C9.94123 3.21916 9.94123 3.21916 10.7987 3.20166Z" fill="#A0A3B1"/>
<path d="M6.30125 3.2192C6.86113 3.20729 7.42137 3.20778 7.98125 3.2192C8.26125 3.4992 8.26125 3.4992 8.29625 4.1992C8.26125 4.8992 8.26125 4.8992 7.98125 5.1792C7.28125 5.2142 7.28125 5.2142 6.58125 5.1792C6.30125 4.8992 6.30125 4.8992 6.28375 4.0417C6.28953 3.77028 6.2953 3.49885 6.30125 3.2192Z" fill="#A0A3B1"/>
<path d="M3.79873 3.20166C4.20587 3.21032 4.20587 3.21032 4.62123 3.21916C4.63314 3.77903 4.63266 4.33928 4.62123 4.89916C4.34123 5.17916 4.34123 5.17916 3.64123 5.21416C2.94123 5.17916 2.94123 5.17916 2.66123 4.89916C2.62623 4.19916 2.62623 4.19916 2.66123 3.49916C2.94123 3.21916 2.94123 3.21916 3.79873 3.20166Z" fill="#A0A3B1"/>
</svg>
