<svg width="23" height="24" viewBox="0 0 23 24" fill="none" xmlns="http://www.w3.org/2000/svg">
<path d="M15.5873 4.63044C13.1419 4.63044 11.1222 2.99999 8.04763 2.99999C6.90881 2.99999 5.88868 3.20549 4.9424 3.5631C5.07354 3.21129 5.12936 2.83458 5.10605 2.45863C5.02518 1.12569 3.96138 0.0565148 2.66225 0.00223349C1.20225 -0.0587978 0 1.13886 0 2.62499C0 3.51683 0.433395 4.30428 1.09524 4.77866V22.875C1.09524 23.4963 1.58559 24 2.19048 24H2.92063C3.52553 24 4.01587 23.4963 4.01587 22.875V18.45C5.30784 17.8845 6.91743 17.413 9.2381 17.413C11.6836 17.413 13.7032 19.0435 16.7778 19.0435C18.976 19.0435 20.7328 18.2797 22.3683 17.1283C22.7645 16.8493 23 16.3861 23 15.8927V4.49741C23 3.40086 21.8925 2.67538 20.9243 3.13728C19.3573 3.88485 17.4353 4.63044 15.5873 4.63044Z" fill="#FF0000"/>
<path d="M12.5708 7.27829L11.5944 9.34678L9.40973 9.67955C9.01795 9.73892 8.86094 10.2435 9.14505 10.5326L10.7256 12.1417L10.3518 14.4149C10.2845 14.8258 10.6987 15.1336 11.0456 14.9414L13 13.8681L14.9544 14.9414C15.3013 15.132 15.7155 14.8258 15.6482 14.4149L15.2744 12.1417L16.8549 10.5326C17.1391 10.2435 16.982 9.73892 16.5903 9.67955L14.4056 9.34678L13.4292 7.27829C13.2542 6.90958 12.7473 6.9049 12.5708 7.27829Z" fill="#FFFF00"/>
</svg>
