<svg width="42" height="42" viewBox="0 0 42 42" fill="none" xmlns="http://www.w3.org/2000/svg">
<path d="M34.7448 1.67944C36.1021 0.279672 38.4837 0.109652 40.0914 1.25464C41.6937 2.39594 41.9704 4.45849 40.7135 5.89917L40.5865 6.03687L26.0416 20.9998L40.5865 35.9626C41.9864 37.4068 41.7454 39.5668 40.0914 40.7449C38.4836 41.89 36.1021 41.7193 34.7448 40.3191L21.0006 26.1804L7.25647 40.3201L7.25549 40.3191C5.8981 41.7189 3.51748 41.8899 1.90979 40.7449C0.255858 39.5668 0.0148296 37.4068 1.41467 35.9626L15.9586 20.9998L1.41467 6.03687C0.0148298 4.59276 0.255859 2.43276 1.90979 1.25464C3.51729 0.109784 5.89802 0.28012 7.25549 1.67944L21.0006 15.8181L34.7448 1.67944Z" fill="#A1A4B2" stroke="#A1A4B2"/>
</svg>
